<svg width="512" height="512" viewBox="0 0 512 512" fill="none" xmlns="http://www.w3.org/2000/svg">
<rect width="512" height="512" fill="#D7D7D7"/>
<path d="M385.333 401.5C385.333 378.938 385.333 367.658 382.549 358.479C376.28 337.811 360.105 321.637 339.438 315.367C330.258 312.583 318.979 312.583 296.417 312.583H215.583C193.022 312.583 181.741 312.583 172.562 315.367C151.894 321.637 135.721 337.811 129.451 358.479C126.667 367.658 126.667 378.938 126.667 401.5M328.75 183.25C328.75 223.429 296.179 256 256 256C215.821 256 183.25 223.429 183.25 183.25C183.25 143.071 215.821 110.5 256 110.5C296.179 110.5 328.75 143.071 328.75 183.25Z" stroke="white" stroke-width="15" stroke-linecap="round" stroke-linejoin="round"/>
</svg>
