<svg xmlns="http://www.w3.org/2000/svg"  viewBox="0 0 24 24" width="96px" height="96px" baseProfile="basic"><circle cx="12" cy="12" r="10" fill="#b1eba3"/><path fill="#5dad49" d="M20.458,6.665c-0.34-0.537-1.101-0.608-1.55-0.159l-4.63,4.63c-0.191,0.191-0.31,0.451-0.29,0.72	c0.054,0.709-0.264,1.44-0.971,1.869c-0.633,0.384-1.472,0.368-2.092-0.038c-1.106-0.723-1.219-2.221-0.338-3.102	c0.429-0.429,1.003-0.617,1.564-0.572c0.267,0.021,0.525-0.102,0.714-0.291l4.63-4.63c0.45-0.45,0.379-1.211-0.159-1.551	c-1.893-1.197-4.215-1.777-6.685-1.453C6.094,2.686,2.469,6.47,2.044,11.044c-0.582,6.275,4.638,11.494,10.913,10.911	c4.574-0.425,8.357-4.05,8.954-8.605C22.235,10.88,21.655,8.558,20.458,6.665z M7,7c0-0.552,0.448-1,1-1s1,0.448,1,1	c0,0.552-0.448,1-1,1S7,7.552,7,7z M9,19c-0.552,0-1-0.448-1-1c0-0.552,0.448-1,1-1s1,0.448,1,1C10,18.552,9.552,19,9,19z M18,15	c-0.552,0-1-0.448-1-1c0-0.552,0.448-1,1-1s1,0.448,1,1C19,14.552,18.552,15,18,15z"/></svg>